Coordinates
version=1
nRows=10
nColumns=46
inDegrees=yes

Units are S.I. units (second, meters, Newtons, ...)
Angles are in degrees.

endheader
time	pelvis_tilt	pelvis_list	pelvis_rotation	pelvis_tx	pelvis_ty	pelvis_tz	bb_angle	bb_tx	bb_ty	bb_tz	hip_flexion_r	hip_adduction_r	hip_rotation_r	knee_angle_r	knee_angle_r_beta	ankle_angle_r	subtalar_angle_r	mtp_angle_r	crank_angle_r	hip_flexion_l	hip_adduction_l	hip_rotation_l	knee_angle_l	knee_angle_l_beta	ankle_angle_l	subtalar_angle_l	mtp_angle_l	crank_angle_l	lumbar_extension	lumbar_bending	lumbar_rotation	arm_flex_r	arm_add_r	arm_rot_r	elbow_flex_r	pro_sup_r	wrist_flex_r	wrist_dev_r	arm_flex_l	arm_add_l	arm_rot_l	elbow_flex_l	pro_sup_l	wrist_flex_l	wrist_dev_l
      5.00500000	    -32.15858178	     -4.28789592	     -6.54529440	      0.32659670	      1.02472991	     -0.19913904	      0.00000000	      0.50000000	      0.00000000	      0.25000000	     76.14949464	      2.47884868	      3.10859786	    109.17565428	      1.90547463	     -5.81885236	     -4.56839611	      0.00000000	      0.00000000	     39.02625424	    -12.22885518	     -6.21576327	     22.39455495	      0.39085872	    -11.60636238	     -2.41575029	      0.00000000	      0.00000000	    -39.19868129	      6.82292622	     -3.79322181	     72.95996085	    -10.08313091	     78.81270558	     48.45149544	     56.04376288	      0.00000000	      0.00000000	     32.23946109	    -30.03725680	     17.05588994	     84.48049718	     50.88856413	      0.00000000	      0.00000000
      5.01000000	    -32.22096996	     -4.26343575	     -7.15427786	      0.32650218	      1.02302344	     -0.19931008	      0.00000000	      0.50000000	      0.00000000	      0.25000000	     77.83699727	      2.69879618	      3.35333595	    110.77784757	      1.93343818	     -3.86125894	     -3.46796198	      0.00000000	      0.00000000	     37.75896943	    -12.60235003	     -7.39322180	     21.25437672	      0.37095885	    -12.52581031	     -1.38251297	      0.00000000	      0.00000000	    -39.03554175	      6.91460295	     -3.58275754	     73.37759071	     -9.80274635	     79.46506612	     48.39022741	     56.23305173	      0.00000000	      0.00000000	     31.48994061	    -29.84890928	     16.04288529	     84.54347122	     50.81521893	      0.00000000	      0.00000000
      5.01500000	    -32.25830109	     -4.14114333	     -7.74762371	      0.32639388	      1.02154083	     -0.19938082	      0.00000000	      0.50000000	      0.00000000	      0.25000000	     79.52895976	      2.87455721	      3.61462789	    112.19597241	      1.95818913	     -2.48991534	     -2.81505501	      0.00000000	      0.00000000	     36.51659906	    -12.88415640	     -8.58309374	     20.24432669	      0.35333016	    -13.44187888	     -0.33486904	      0.00000000	      0.00000000	    -38.91066879	      6.90292351	     -3.40298011	     73.59996797	     -9.54749304	     79.93787099	     48.38344841	     56.40215257	      0.00000000	      0.00000000	     30.79821453	    -29.78262776	     15.41589514	     84.62303739	     50.78212920	      0.00000000	      0.00000000
      5.02000000	    -32.25946694	     -3.98449433	     -8.31215353	      0.32645141	      1.02035940	     -0.19947502	      0.00000000	      0.50000000	      0.00000000	      0.25000000	     81.17401596	      2.89803539	      3.74164920	    113.40392342	      1.97927185	     -1.38286496	     -2.39789390	      0.00000000	      0.00000000	     35.29246200	    -13.10862560	     -9.69762205	     19.37127783	      0.33809258	    -14.38382581	      0.75661142	      0.00000000	      0.00000000	    -38.82037980	      6.82883519	     -3.16598673	     73.61567699	     -9.41984690	     80.18058321	     48.44257255	     56.50249761	      0.00000000	      0.00000000	     30.33890091	    -29.73448994	     15.16376832	     84.63288315	     50.76808135	      0.00000000	      0.00000000
      5.02500000	    -32.25613059	     -3.66151186	     -8.90513547	      0.32652115	      1.01930793	     -0.19956968	      0.00000000	      0.50000000	      0.00000000	      0.25000000	     82.82761627	      2.95729932	      4.14782052	    114.43706997	      1.99730366	     -0.50340535	     -1.45984390	      0.00000000	      0.00000000	     34.07887833	    -13.19152906	    -10.98719994	     18.60098974	      0.32464852	    -15.09356952	      2.03386731	      0.00000000	      0.00000000	    -38.77505663	      6.56044938	     -3.00679431	     73.81540357	     -9.36217595	     80.36411996	     48.60166352	     56.64809826	      0.00000000	      0.00000000	     29.95663759	    -29.65467358	     14.72646392	     84.71776796	     50.75077581	      0.00000000	      0.00000000
      5.03000000	    -32.45484999	     -3.37150730	     -9.32267208	      0.32643158	      1.01828091	     -0.19986376	      0.00000000	      0.50000000	      0.00000000	      0.25000000	     84.64290494	      2.81452535	      4.27653783	    115.21961412	      2.01096163	     -0.01384186	     -1.27364457	      0.00000000	      0.00000000	     33.20214675	    -13.16865669	    -11.70548482	     17.93960682	      0.31310521	    -15.88543656	      3.04058171	      0.00000000	      0.00000000	    -38.54718088	      6.44419381	     -2.89338358	     74.00883462	     -9.37133266	     80.34538500	     48.65462873	     56.68305224	      0.00000000	      0.00000000	     29.74908251	    -29.55560603	     14.72238326	     84.72197117	     50.75521725	      0.00000000	      0.00000000
      5.03500000	    -32.33886800	     -2.83904858	     -9.97586963	      0.32682301	      1.01778366	     -0.19958641	      0.00000000	      0.50000000	      0.00000000	      0.25000000	     86.13992893	      2.88776288	      4.72840898	    115.84440609	      2.02186631	      0.38527588	     -0.58115982	      0.00000000	      0.00000000	     31.91810223	    -13.11493948	    -13.23698854	     17.37246885	      0.30320678	    -16.33228739	      4.74316539	      0.00000000	      0.00000000	    -38.58815398	      5.84599338	     -2.67747425	     73.86053033	     -9.52551385	     80.39836779	     49.02353076	     56.84343657	      0.00000000	      0.00000000	     29.54127797	    -29.50331115	     14.54234040	     84.72305551	     50.74682795	      0.00000000	      0.00000000
      5.04000000	    -32.36952931	     -2.40845782	    -10.38481081	      0.32702280	      1.01730171	     -0.19953424	      0.00000000	      0.50000000	      0.00000000	      0.25000000	     87.69531283	      2.83748531	      4.98805652	    116.25571562	      2.02904501	      0.47928239	     -0.33795283	      0.00000000	      0.00000000	     30.95315037	    -12.98685678	    -14.08897984	     16.96561193	      0.29610579	    -16.82922668	      5.97527303	      0.00000000	      0.00000000	    -38.51061858	      5.46701857	     -2.56365669	     73.80460445	     -9.78743299	     80.33253517	     49.40104109	     56.95552926	      0.00000000	      0.00000000	     29.45487850	    -29.49262012	     14.46572843	     84.65568682	     50.73465765	      0.00000000	      0.00000000
      5.04500000	    -32.36484152	     -1.95355917	    -10.72330486	      0.32724038	      1.01710930	     -0.19950325	      0.00000000	      0.50000000	      0.00000000	      0.25000000	     89.12924817	      2.72534828	      5.18405815	    116.43247611	      2.03213006	      0.47121961	     -0.21882326	      0.00000000	      0.00000000	     30.05734563	    -12.77114237	    -14.68875349	     16.75812404	      0.29248444	    -17.21062613	      6.94363244	      0.00000000	      0.00000000	    -38.50734442	      5.09583601	     -2.45128710	     73.85132703	     -9.91582277	     80.24406365	     49.72661555	     57.02918623	      0.00000000	      0.00000000	     29.50883030	    -29.37812356	     14.63417053	     84.65350177	     50.75302972	      0.00000000	      0.00000000
      5.05000000	    -32.17946813	     -1.38564217	    -11.20531257	      0.32772526	      1.01726710	     -0.19916003	      0.00000000	      0.50000000	      0.00000000	      0.25000000	     90.29872965	      2.79101418	      5.53690773	    116.46186893	      2.03264307	      0.44087369	      0.02141412	      0.00000000	      0.00000000	     29.00303376	    -12.52968113	    -15.68473580	     16.79107549	      0.29305955	    -17.16078482	      8.10928326	      0.00000000	      0.00000000	    -38.69084988	      4.24984389	     -1.09528983	     73.16392124	    -12.78222891	     78.83253061	     53.48875004	     57.84172243	      0.00000000	      0.00000000	     31.36170232	    -28.61818154	     16.77013212	     83.13030435	     50.74452718	      0.00000000	      0.00000000
